<svg xmlns="http://www.w3.org/2000/svg" viewBox="0 0 600.49 500"><defs><style>.cls-1{fill:#fff;}.cls-2{fill:#323232;}.cls-3{fill:#f5333f;}</style></defs><g id="Capa_2" data-name="Capa 2"><g id="Capa_1-2" data-name="Capa 1"><rect class="cls-1" width="600.49" height="500"/><path class="cls-2" d="M109.14,386.54a29.49,29.49,0,0,1-11.52-10.93,31.88,31.88,0,0,1,0-31.6,29.46,29.46,0,0,1,11.52-10.92,36.76,36.76,0,0,1,30.41-1.23A27.89,27.89,0,0,1,150,339.65l-8.81,8.13a18.94,18.94,0,0,0-14.9-6.94,19.78,19.78,0,0,0-9.83,2.41,17.11,17.11,0,0,0-6.73,6.74,21.15,21.15,0,0,0,0,19.65,17.08,17.08,0,0,0,6.73,6.73,19.78,19.78,0,0,0,9.83,2.42,18.84,18.84,0,0,0,14.9-7l8.81,8.13a27.49,27.49,0,0,1-10.5,7.88,35,35,0,0,1-14,2.71A34.14,34.14,0,0,1,109.14,386.54Z"/><path class="cls-2" d="M177.33,344.9a23.71,23.71,0,0,1,9.28-1.69v12.2c-1.47-.12-2.46-.17-3-.17q-5.67,0-8.89,3.17t-3.22,9.53v21.52H158.31V343.89h12.63v6A14.71,14.71,0,0,1,177.33,344.9Z"/><path class="cls-2" d="M240.74,343.89v45.57H228.2V384a17.41,17.41,0,0,1-6.27,4.53,19.63,19.63,0,0,1-7.88,1.57q-9,0-14.23-5.17t-5.25-15.33V343.89h13.21v23.8q0,11,9.24,11a9.92,9.92,0,0,0,7.62-3.09q2.88-3.09,2.88-9.19V343.89Z"/><path class="cls-2" d="M290.54,379.29v10.17H249.88v-8l23.21-27.45H250.48V343.89h39.3v8l-23.21,27.44Z"/><path class="cls-2" d="M361.7,389.46l-11.44-16.52H337.64v16.52H323.92v-59.3h25.67a33,33,0,0,1,13.68,2.63,19.63,19.63,0,0,1,12.07,18.89,19.33,19.33,0,0,1-12.2,18.72l13.3,19.06ZM358.23,344q-3.23-2.67-9.41-2.66H337.64V362h11.18q6.18,0,9.41-2.71a9.41,9.41,0,0,0,3.21-7.62Q361.44,346.69,358.23,344Z"/><path class="cls-2" d="M394,387.13a22.25,22.25,0,0,1-8.93-8.34,24.4,24.4,0,0,1,0-24.23,22.25,22.25,0,0,1,8.93-8.34,29.15,29.15,0,0,1,25.8,0,22.41,22.41,0,0,1,8.89,8.34,24.4,24.4,0,0,1,0,24.23,22.41,22.41,0,0,1-8.89,8.34,29.15,29.15,0,0,1-25.8,0Zm21.27-11.27a14.58,14.58,0,0,0,0-18.38,11.92,11.92,0,0,0-16.73,0,12.67,12.67,0,0,0-3.31,9.19q0,5.76,3.31,9.19a11.92,11.92,0,0,0,16.73,0Z"/><path class="cls-2" d="M426.75,404l3.56-9.57a9.5,9.5,0,0,0,5.59,1.61,5,5,0,0,0,4-1.65,7.4,7.4,0,0,0,1.44-5V343.89h13.22v45.48q0,8-4.53,12.59t-12.67,4.61Q430.4,406.57,426.75,404ZM442,335.42a7.17,7.17,0,0,1,0-10.51,8.4,8.4,0,0,1,5.93-2.12,8.56,8.56,0,0,1,5.93,2,6.5,6.5,0,0,1,2.29,5.08,7.17,7.17,0,0,1-2.29,5.46,8.27,8.27,0,0,1-5.93,2.16A8.39,8.39,0,0,1,442,335.42Z"/><path class="cls-2" d="M501.38,348.25q5.67,5,5.68,15.21v26H494.69v-5.67q-3.74,6.34-13.89,6.35a21.68,21.68,0,0,1-9.11-1.78,13.63,13.63,0,0,1-5.89-4.91,12.83,12.83,0,0,1-2-7.12,11.9,11.9,0,0,1,4.79-10q4.79-3.63,14.78-3.64h10.5a8.43,8.43,0,0,0-2.62-6.65q-2.62-2.32-7.88-2.33a23.07,23.07,0,0,0-7.16,1.15,18.92,18.92,0,0,0-6,3.09l-4.74-9.23a28.58,28.58,0,0,1,8.93-4.07,40.05,40.05,0,0,1,10.72-1.44Q495.71,343.21,501.38,348.25Zm-11.26,31.43a8.63,8.63,0,0,0,3.72-4.62V370.4h-9.06q-8.13,0-8.13,5.34a4.75,4.75,0,0,0,2,4,8.92,8.92,0,0,0,5.46,1.48A11.59,11.59,0,0,0,490.12,379.68Z"/><polygon class="cls-3" points="332.67 155.74 332.67 93.43 270.36 93.43 270.36 155.74 208.04 155.74 208.04 218.06 270.36 218.06 270.36 280.37 332.67 280.37 332.67 218.06 394.98 218.06 394.98 155.74 332.67 155.74"/></g></g></svg>